<?xml version="1.0" encoding="iso-8859-1"?>
<!-- Generator: Adobe Illustrator 19.0.0, SVG Export Plug-In . SVG Version: 6.00 Build 0)  -->
<svg version="1.1" id="Layer_1" xmlns="http://www.w3.org/2000/svg" xmlns:xlink="http://www.w3.org/1999/xlink" x="0px" y="0px"
	 viewBox="0 0 512 512" style="enable-background:new 0 0 512 512;" xml:space="preserve">
<circle style="fill:#FFC36E;" cx="256" cy="450.207" r="61.793"/>
<path style="fill:#E1B464;" d="M238.345,476.69c0-34.127,27.666-61.793,61.793-61.793c2.311,0,4.584,0.15,6.829,0.396
	c-11.136-16.224-29.801-26.879-50.967-26.879c-34.127,0-61.793,27.666-61.793,61.793c0,31.817,24.054,57.994,54.964,61.397
	C242.351,501.668,238.345,489.651,238.345,476.69z"/>
<path style="fill:#FFD782;" d="M441.379,388.414H70.621V273.655c0-102.382,82.997-185.379,185.379-185.379l0,0
	c102.382,0,185.379,82.997,185.379,185.379V388.414z"/>
<g>
	<path style="fill:#FFC36E;" d="M291.31,35.31c0-22.222-20.62-39.706-43.736-34.33c-12.682,2.95-22.97,13.257-25.91,25.942
		c-4.153,17.918,5.428,34.157,20.246,40.626c3.196,1.395,5.263,4.533,5.263,8.02v21.536h17.655V75.568
		c0-3.487,2.068-6.625,5.263-8.02C282.552,62.108,291.31,49.758,291.31,35.31z M256,52.966c-9.732,0-17.655-7.923-17.655-17.655
		S246.268,17.655,256,17.655s17.655,7.923,17.655,17.655S265.732,52.966,256,52.966z"/>
	<path style="fill:#FFC36E;" d="M292.045,91.841C280.38,89.54,268.341,88.276,256,88.276c-102.382,0-185.379,82.997-185.379,185.379
		v114.759h114.759V273.655C185.379,183.614,231.246,108.625,292.045,91.841z"/>
</g>
<path style="fill:#FFD782;" d="M453.579,441.379H58.421c-6.562,0-10.83-6.906-7.895-12.776l20.095-40.19h370.759l20.095,40.19
	C464.409,434.473,460.141,441.379,453.579,441.379z"/>
<rect x="70.621" y="370.759" style="fill:#FFC36E;" width="370.759" height="17.655"/>
<rect x="70.621" y="370.759" style="fill:#E1B464;" width="114.759" height="17.655"/>
<path style="fill:#FFC36E;" d="M165.357,428.604l20.095-40.19H70.621l-20.095,40.19c-2.935,5.869,1.333,12.776,7.895,12.776h114.831
	C166.69,441.379,162.422,434.473,165.357,428.604z"/>
<g>
</g>
<g>
</g>
<g>
</g>
<g>
</g>
<g>
</g>
<g>
</g>
<g>
</g>
<g>
</g>
<g>
</g>
<g>
</g>
<g>
</g>
<g>
</g>
<g>
</g>
<g>
</g>
<g>
</g>
</svg>
