<?xml version="1.0" encoding="iso-8859-1"?>
<!-- Generator: Adobe Illustrator 19.0.0, SVG Export Plug-In . SVG Version: 6.00 Build 0)  -->
<svg version="1.1" id="Layer_1" xmlns="http://www.w3.org/2000/svg" xmlns:xlink="http://www.w3.org/1999/xlink" x="0px" y="0px"
	 viewBox="0 0 512 512" style="enable-background:new 0 0 512 512;" xml:space="preserve">
<path style="fill:#D7DEED;" d="M503.172,388.414H8.828c-4.875,0-8.828-3.953-8.828-8.828V247.172c0-4.875,3.953-8.828,8.828-8.828
	h494.345c4.875,0,8.828,3.953,8.828,8.828v132.414C512,384.461,508.047,388.414,503.172,388.414z"/>
<path style="fill:#EFF2FA;" d="M503.172,273.655H8.828c-4.875,0-8.828-3.953-8.828-8.828V132.414c0-4.875,3.953-8.828,8.828-8.828
	h494.345c4.875,0,8.828,3.953,8.828,8.828v132.414C512,269.703,508.047,273.655,503.172,273.655z"/>
<g>
	<path style="fill:#D7DEED;" d="M70.621,247.172c0-14.626-19.762-26.483-44.138-26.483v26.483H70.621z"/>
	<path style="fill:#D7DEED;" d="M70.621,150.069c0,14.626-19.762,26.483-44.138,26.483v-26.483H70.621z"/>
</g>
<g>
	<ellipse style="fill:#9BDC6E;" cx="110.345" cy="198.621" rx="22.069" ry="11.034"/>
	<ellipse style="fill:#9BDC6E;" cx="392.828" cy="198.621" rx="22.069" ry="11.034"/>
</g>
<g>
	<path style="fill:#D7DEED;" d="M441.379,247.172c0-14.626,19.762-26.483,44.138-26.483v26.483H441.379z"/>
	<path style="fill:#D7DEED;" d="M441.379,150.069c0,14.626,19.762,26.483,44.138,26.483v-26.483H441.379z"/>
</g>
<path style="fill:#B9E678;" d="M485.517,141.241H26.483c-4.875,0-8.828,3.953-8.828,8.828v97.103c0,4.875,3.953,8.828,8.828,8.828
	h459.034c4.875,0,8.828-3.953,8.828-8.828v-97.103C494.345,145.194,490.392,141.241,485.517,141.241z M476.69,167.112
	c-9.049-1.276-16.493-4.42-21.161-8.214h21.161V167.112z M434.158,238.345H77.841c-5.048-13.545-21.536-23.75-42.53-26.007v-27.435
	c20.994-2.258,37.482-12.461,42.53-26.007h356.318c5.049,13.545,21.537,23.75,42.531,26.007v27.435
	C455.695,214.595,439.208,224.8,434.158,238.345z M56.471,158.897c-4.668,3.795-12.113,6.94-21.161,8.214v-8.214H56.471z
	 M35.31,230.131c9.049,1.276,16.493,4.42,21.161,8.214H35.31V230.131z M455.529,238.345c4.668-3.795,12.113-6.94,21.161-8.214v8.214
	H455.529z"/>
<rect x="167.724" y="123.586" style="fill:#FFEBC3;" width="167.724" height="264.828"/>
<g>
	<rect x="167.724" y="273.655" style="fill:#FFD782;" width="167.724" height="114.759"/>
	<rect x="167.724" y="123.586" style="fill:#FFD782;" width="35.31" height="264.828"/>
</g>
<rect x="167.724" y="273.655" style="fill:#FFC36E;" width="35.31" height="114.759"/>
<rect x="300.138" y="123.586" style="fill:#FFD782;" width="35.31" height="264.828"/>
<rect x="300.138" y="273.655" style="fill:#FFC36E;" width="35.31" height="114.759"/>
<g>
	<path style="fill:#FFD782;" d="M273.655,229.517h-44.138c-4.875,0-8.828-3.953-8.828-8.828l0,0c0-4.875,3.953-8.828,8.828-8.828
		h44.138c4.875,0,8.828,3.953,8.828,8.828l0,0C282.483,225.565,278.53,229.517,273.655,229.517z"/>
	<ellipse style="fill:#FFD782;" cx="251.586" cy="176.552" rx="30.897" ry="15.448"/>
</g>
<g>
</g>
<g>
</g>
<g>
</g>
<g>
</g>
<g>
</g>
<g>
</g>
<g>
</g>
<g>
</g>
<g>
</g>
<g>
</g>
<g>
</g>
<g>
</g>
<g>
</g>
<g>
</g>
<g>
</g>
</svg>
