<?xml version="1.0" encoding="iso-8859-1"?>
<!-- Generator: Adobe Illustrator 19.0.0, SVG Export Plug-In . SVG Version: 6.00 Build 0)  -->
<svg version="1.1" id="Layer_1" xmlns="http://www.w3.org/2000/svg" xmlns:xlink="http://www.w3.org/1999/xlink" x="0px" y="0px"
	 viewBox="0 0 512 512" style="enable-background:new 0 0 512 512;" xml:space="preserve">
<rect x="448" y="114.759" style="fill:#AFB9D2;" width="17.655" height="176.552"/>
<path style="fill:#C7CFE2;" d="M465.655,344.276h-35.31c-4.875,0-8.828-3.953-8.828-8.828v-52.966c0-4.875,3.953-8.828,8.828-8.828
	h35.31c4.875,0,8.828,3.953,8.828,8.828v52.966C474.483,340.323,470.53,344.276,465.655,344.276z"/>
<path style="fill:#AFB9D2;" d="M430.345,361.931h-26.483c-4.875,0-8.828-3.953-8.828-8.828v-88.276c0-4.875,3.953-8.828,8.828-8.828
	h26.483c4.875,0,8.828,3.953,8.828,8.828v88.276C439.172,357.978,435.22,361.931,430.345,361.931z"/>
<circle style="fill:#FF6464;" cx="227.31" cy="35.31" r="35.31"/>
<path style="fill:#D2555A;" d="M218.483,35.31c0-14.812,9.139-27.448,22.069-32.692C236.457,0.958,232,0,227.31,0
	C207.809,0,192,15.809,192,35.31s15.809,35.31,35.31,35.31c4.69,0,9.146-0.958,13.241-2.618
	C227.622,62.759,218.483,50.121,218.483,35.31z"/>
<path style="fill:#C7CFE2;" d="M403.862,512H50.759c-9.751,0-17.655-7.904-17.655-17.655V70.621c0-9.751,7.904-17.655,17.655-17.655
	h353.103c9.751,0,17.655,7.904,17.655,17.655v423.724C421.517,504.095,413.612,512,403.862,512z"/>
<path style="fill:#AFB9D2;" d="M386.207,300.138H68.414c-4.875,0-8.828-3.953-8.828-8.828V97.103c0-4.875,3.953-8.828,8.828-8.828
	h317.793c4.875,0,8.828,3.953,8.828,8.828V291.31C395.034,296.185,391.082,300.138,386.207,300.138z"/>
<path style="fill:#EFF2FA;" d="M158.057,247.172H84.702c-4.12,0-7.46-3.34-7.46-7.46V113.391c0-4.12,3.34-7.46,7.46-7.46h73.355
	c4.12,0,7.46,3.34,7.46,7.46v126.321C165.517,243.832,162.177,247.172,158.057,247.172z"/>
<g>
	<path style="fill:#FF6464;" d="M105.953,167.07h18.964c-16,7.507-14.222,37.927-14.222,37.927h23.704
		c0-31.704,18.964-47.409,18.964-47.409l-4.74-9.482H96.449c-2.606,0-4.718,2.112-4.718,4.718v23.727h9.46
		c2.631,0,4.764-2.133,4.764-4.764v-4.718H105.953z"/>
	<path style="fill:#FF6464;" d="M77.241,167.724v17.655c4.875,0,8.828-3.953,8.828-8.828S82.116,167.724,77.241,167.724z"/>
	<path style="fill:#FF6464;" d="M165.517,185.379v-17.655c-4.875,0-8.828,3.953-8.828,8.828S160.642,185.379,165.517,185.379z"/>
</g>
<path style="fill:#EFF2FA;" d="M263.988,247.172h-73.355c-4.12,0-7.46-3.34-7.46-7.46V113.391c0-4.12,3.34-7.46,7.46-7.46h73.355
	c4.12,0,7.46,3.34,7.46,7.46v126.321C271.448,243.832,268.108,247.172,263.988,247.172z"/>
<g>
	<path style="fill:#FF6464;" d="M211.884,167.07h18.964c-16,7.507-14.222,37.927-14.222,37.927h23.704
		c0-31.704,18.964-47.409,18.964-47.409l-4.74-9.482h-52.172c-2.606,0-4.718,2.112-4.718,4.718v23.727h9.46
		c2.631,0,4.764-2.133,4.764-4.764v-4.718H211.884z"/>
	<path style="fill:#FF6464;" d="M183.172,167.724v17.655c4.875,0,8.828-3.953,8.828-8.828S188.047,167.724,183.172,167.724z"/>
	<path style="fill:#FF6464;" d="M271.448,185.379v-17.655c-4.875,0-8.828,3.953-8.828,8.828S266.572,185.379,271.448,185.379z"/>
</g>
<path style="fill:#EFF2FA;" d="M369.919,247.172h-73.355c-4.12,0-7.46-3.34-7.46-7.46V113.391c0-4.12,3.34-7.46,7.46-7.46h73.355
	c4.12,0,7.46,3.34,7.46,7.46v126.321C377.379,243.832,374.039,247.172,369.919,247.172z"/>
<g>
	<path style="fill:#FF6464;" d="M317.815,167.07h18.964c-16,7.507-14.222,37.927-14.222,37.927h23.704
		c0-31.704,18.964-47.409,18.964-47.409l-4.74-9.482h-52.172c-2.606,0-4.718,2.112-4.718,4.718v23.727h9.46
		c2.631,0,4.764-2.133,4.764-4.764v-4.718H317.815z"/>
	<path style="fill:#FF6464;" d="M289.103,167.724v17.655c4.875,0,8.828-3.953,8.828-8.828S293.978,167.724,289.103,167.724z"/>
	<path style="fill:#FF6464;" d="M377.379,185.379v-17.655c-4.875,0-8.828,3.953-8.828,8.828S372.503,185.379,377.379,185.379z"/>
</g>
<g>
	<path style="fill:#5B5D6E;" d="M368.552,282.483h-70.621c-4.875,0-8.828-3.953-8.828-8.828l0,0c0-4.875,3.953-8.828,8.828-8.828
		h70.621c4.875,0,8.828,3.953,8.828,8.828l0,0C377.379,278.53,373.427,282.483,368.552,282.483z"/>
	<path style="fill:#5B5D6E;" d="M262.621,282.483H86.069c-4.875,0-8.828-3.953-8.828-8.828l0,0c0-4.875,3.953-8.828,8.828-8.828
		h176.552c4.875,0,8.828,3.953,8.828,8.828l0,0C271.448,278.53,267.496,282.483,262.621,282.483z"/>
</g>
<path style="fill:#AFB9D2;" d="M271.448,52.966h-88.276v-8.828c0-4.875,3.953-8.828,8.828-8.828h70.621
	c4.875,0,8.828,3.953,8.828,8.828V52.966z"/>
<path style="fill:#959CB3;" d="M218.483,35.31H192c-4.875,0-8.828,3.953-8.828,8.828v8.828h26.483v-8.828
	C209.655,39.263,213.607,35.31,218.483,35.31z"/>
<g>
	<path style="fill:#FF6464;" d="M112.552,344.276H86.069c-4.875,0-8.828-3.953-8.828-8.828v-8.828c0-4.875,3.953-8.828,8.828-8.828
		h26.483c4.875,0,8.828,3.953,8.828,8.828v8.828C121.379,340.323,117.427,344.276,112.552,344.276z"/>
	<path style="fill:#FF6464;" d="M174.345,344.276h-26.483c-4.875,0-8.828-3.953-8.828-8.828v-8.828c0-4.875,3.953-8.828,8.828-8.828
		h26.483c4.875,0,8.828,3.953,8.828,8.828v8.828C183.172,340.323,179.22,344.276,174.345,344.276z"/>
</g>
<path style="fill:#FFE669;" d="M236.138,344.276h-26.483c-4.875,0-8.828-3.953-8.828-8.828v-8.828c0-4.875,3.953-8.828,8.828-8.828
	h26.483c4.875,0,8.828,3.953,8.828,8.828v8.828C244.966,340.323,241.013,344.276,236.138,344.276z"/>
<path style="fill:#959CB3;" d="M386.207,326.621h-1.282c-3.689,0-7.284,2.109-8.455,5.608c-2.344,7.001-8.956,12.047-16.746,12.047
	c-7.79,0-14.402-5.046-16.746-12.047c-1.171-3.499-4.765-5.608-8.455-5.608h-36.593c-4.875,0-8.828,3.953-8.828,8.828v26.483
	h105.931v-26.483C395.034,330.573,391.082,326.621,386.207,326.621z"/>
<path style="fill:#AFB9D2;" d="M403.862,512H50.759c-9.751,0-17.655-7.904-17.655-17.655V379.586
	c0-9.751,7.904-17.655,17.655-17.655h353.103c9.751,0,17.655,7.904,17.655,17.655v114.759C421.517,504.095,413.612,512,403.862,512z
	"/>
<path style="fill:#5B5D6E;" d="M315.586,494.345H139.034c-4.875,0-8.828-3.953-8.828-8.828v-35.31c0-4.875,3.953-8.828,8.828-8.828
	h176.552c4.875,0,8.828,3.953,8.828,8.828v35.31C324.414,490.392,320.461,494.345,315.586,494.345z"/>
<path style="fill:#515262;" d="M130.207,450.207v8.828h194.207v-8.828c0-4.875-3.953-8.828-8.828-8.828H139.034
	C134.159,441.379,130.207,445.331,130.207,450.207z"/>
<g>
	<path style="fill:#959CB3;" d="M33.103,476.69h70.621c4.875,0,8.828-3.953,8.828-8.828l0,0c0-4.875-3.953-8.828-8.828-8.828H33.103
		V476.69z"/>
	<path style="fill:#959CB3;" d="M421.517,459.034h-70.621c-4.875,0-8.828,3.953-8.828,8.828l0,0c0,4.875,3.953,8.828,8.828,8.828
		h70.621V459.034z"/>
</g>
<path style="fill:#C7CFE2;" d="M386.207,406.069H68.414c-4.875,0-8.828-3.953-8.828-8.828l0,0c0-4.875,3.953-8.828,8.828-8.828
	h317.793c4.875,0,8.828,3.953,8.828,8.828l0,0C395.034,402.116,391.082,406.069,386.207,406.069z"/>
<circle style="fill:#FF6464;" cx="456.828" cy="110.345" r="22.069"/>
<path style="fill:#D2555A;" d="M448,110.345c0-9.866,6.517-18.121,15.448-20.946c-2.103-0.665-4.298-1.123-6.621-1.123
	c-12.189,0-22.069,9.88-22.069,22.069c0,12.188,9.88,22.069,22.069,22.069c2.323,0,4.518-0.458,6.621-1.123
	C454.517,128.466,448,120.21,448,110.345z"/>
<g>
</g>
<g>
</g>
<g>
</g>
<g>
</g>
<g>
</g>
<g>
</g>
<g>
</g>
<g>
</g>
<g>
</g>
<g>
</g>
<g>
</g>
<g>
</g>
<g>
</g>
<g>
</g>
<g>
</g>
</svg>
