<?xml version="1.0" encoding="iso-8859-1"?>
<!-- Generator: Adobe Illustrator 19.0.0, SVG Export Plug-In . SVG Version: 6.00 Build 0)  -->
<svg version="1.1" id="Layer_1" xmlns="http://www.w3.org/2000/svg" xmlns:xlink="http://www.w3.org/1999/xlink" x="0px" y="0px"
	 viewBox="0 0 512 512" style="enable-background:new 0 0 512 512;" xml:space="preserve">
<path style="fill:#959CB3;" d="M432.552,331.034H79.448l24.525-122.628c1.138-5.689,6.134-9.785,11.936-9.785h280.179
	c5.803,0,10.798,4.096,11.936,9.785L432.552,331.034z"/>
<circle style="fill:#FFE3A8;" cx="256" cy="233.931" r="114.759"/>
<path style="fill:#FFD782;" d="M256,357.517c-68.145,0-123.586-55.442-123.586-123.586S187.855,110.345,256,110.345
	s123.586,55.442,123.586,123.586S324.145,357.517,256,357.517z M256,145.655c-48.674,0-88.276,39.602-88.276,88.276
	c0,48.679,39.602,88.276,88.276,88.276s88.276-39.597,88.276-88.276C344.276,185.257,304.674,145.655,256,145.655z"/>
<path style="fill:#FFC36E;" d="M256,339.861c-58.411,0-105.931-47.52-105.931-105.931S197.589,127.999,256,127.999
	s105.931,47.52,105.931,105.931S314.411,339.861,256,339.861z M256,145.654c-48.675,0-88.276,39.601-88.276,88.276
	s39.601,88.276,88.276,88.276s88.276-39.601,88.276-88.276S304.675,145.654,256,145.654z"/>
<path style="fill:#E1B464;" d="M295.289,255.444c0-15.25-8.995-24.597-26.986-28.532l-6.333-1.242v-26.211
	c4.834,1.013,8.649,3.878,10.552,7.697c1.611,3.231,4.897,5.281,8.508,5.281c7.357,0,12.129-8.109,8.212-14.337
	c-5.113-8.129-14.696-13.58-27.272-14.976v-4.527c0-3.565-2.89-6.456-6.456-6.456s-6.456,2.89-6.456,6.456v4.525
	c-19.959,2.173-31.636,13.097-31.636,29.807c0,14.617,9.066,24.386,26.002,28.321l5.633,1.329v27.546
	c-5.705-1.06-10.045-3.985-12.185-8.092c-1.664-3.191-4.897-5.252-8.497-5.252h-0.949c-7.361,0-12.078,8.085-8.21,14.348
	c5.269,8.532,15.668,13.908,29.842,15.097v3.044c0,3.565,2.89,6.456,6.456,6.456s6.456-2.89,6.456-6.456v-3.111
	C283.282,283.964,295.289,272.964,295.289,255.444z M237.734,211.169c0-6.134,4.633-10.774,11.326-11.817v23.599
	C241.663,220.937,237.734,216.9,237.734,211.169z M261.971,270.374v-25.353c9.151,2.059,13.43,6.135,13.43,12.672
	C275.402,264.813,270.447,269.483,261.971,270.374z"/>
<g>
	<path style="fill:#FFFFFF;" d="M343.532,172.946c-13.173-3.004-23.543-13.373-26.546-26.546c-0.226-0.992-1.539-0.992-1.766,0
		c-3.004,13.173-13.373,23.543-26.546,26.546c-0.992,0.226-0.992,1.539,0,1.766c13.173,3.004,23.543,13.373,26.546,26.546
		c0.226,0.992,1.539,0.992,1.766,0c3.004-13.173,13.373-23.543,26.546-26.546C344.524,174.485,344.524,173.172,343.532,172.946z"/>
	<path style="fill:#FFFFFF;" d="M308.267,209.472c-9.274-2.402-16.577-9.705-18.979-18.979c-0.242-0.931-1.447-0.931-1.688,0
		c-2.402,9.274-9.705,16.577-18.979,18.979c-0.931,0.242-0.931,1.447,0,1.688c9.274,2.402,16.577,9.704,18.979,18.979
		c0.242,0.931,1.447,0.931,1.688,0c2.402-9.276,9.705-16.577,18.979-18.979C309.198,210.919,309.198,209.713,308.267,209.472z"/>
</g>
<g>
	<path style="fill:#AFB9D2;" d="M115.601,198.621L115.601,198.621c4.823,0,9.16,2.936,10.952,7.414l49.999,125H79.448
		l24.586-122.932C105.138,202.589,109.978,198.621,115.601,198.621z"/>
	<path style="fill:#AFB9D2;" d="M396.399,198.621L396.399,198.621c5.622,0,10.463,3.968,11.566,9.482l24.586,122.932h-97.103
		l49.999-125C387.239,201.557,391.576,198.621,396.399,198.621z"/>
</g>
<path style="fill:#C7CFE2;" d="M398.355,290.926l-11.053,18.423c-4.786,7.977-13.407,12.857-22.709,12.857H147.409
	c-9.302,0-17.922-4.881-22.709-12.857l-11.053-18.423c-4.787-7.977-13.407-12.857-22.71-12.857H17.655
	C7.904,278.069,0,285.973,0,295.724v97.103c0,4.875,3.953,8.828,8.828,8.828h494.345c4.875,0,8.828-3.953,8.828-8.828v-97.103
	c0-9.751-7.904-17.655-17.655-17.655h-73.281C411.761,278.069,403.14,282.95,398.355,290.926z"/>
<path style="fill:#AFB9D2;" d="M503.172,401.655H8.828c-4.875,0-8.828-3.953-8.828-8.828v-17.655c0-4.875,3.953-8.828,8.828-8.828
	h494.345c4.875,0,8.828,3.953,8.828,8.828v17.655C512,397.703,508.047,401.655,503.172,401.655z"/>
<g>
</g>
<g>
</g>
<g>
</g>
<g>
</g>
<g>
</g>
<g>
</g>
<g>
</g>
<g>
</g>
<g>
</g>
<g>
</g>
<g>
</g>
<g>
</g>
<g>
</g>
<g>
</g>
<g>
</g>
</svg>
